<svg xmlns="http://www.w3.org/2000/svg" viewBox="0 0 418 106"><defs><style>.cls-1{font-size:28px;fill:#020000;font-family:OpenSans-Light, Open Sans;}.cls-2{isolation:isolate;}.cls-3{fill:#272727;fill-rule:evenodd;}</style></defs><title>Artboard 1</title><g id="Canberra_Pet_Photography" data-name="Canberra Pet Photography"><text class="cls-1" transform="translate(80.57 97)">Canberra Pet Photography</text></g><g id="Pawshots" class="cls-2"><g id="Pawshots-2" data-name="Pawshots"><path class="cls-3" d="M107.78,3.36C104.19,2.14,104.39,2.14,94.13,2,88.81,2,84,2,83.66,2.05l-.57.14V26.61c0,15.53.07,23.35.24,23.66s.54.45,4.13.45c3,0,4-.07,4.17-.31s.28-2.92.31-8.39L92,34l4.64-.14c6.82-.21,9.72-.76,13-2.42a14.73,14.73,0,0,0,6.64-8,20.53,20.53,0,0,0-1-13.57A15,15,0,0,0,107.78,3.36Zm-.26,19.11a8.77,8.77,0,0,1-1.79,2.35c-2.11,1.88-4,2.33-9.49,2.36-3.8,0-3.91,0-4.15-.46-.38-.73-.33-16.78.07-17.33.29-.38.54-.4,5-.33s5,.14,6.28.64c1.71.69,3.4,3,4.19,4.56.52,1,.59,1.43.59,4S108.14,21.21,107.52,22.47Zm37.2-2.69c-2.38-2.38-5-3.33-9.09-3.33a20.3,20.3,0,0,0-12.82,4.3l-.83.69.71,1.34c1.17,2.16,1.93,2.66,3.83,2.54a7.6,7.6,0,0,0,1.9-.9,10.57,10.57,0,0,1,6.07-2c2.83,0,4.38.86,5.35,2.95a6.94,6.94,0,0,1,.57,3.61v2.41l-3.26.28c-7,.62-11.13,2-14,4.59a7.78,7.78,0,0,0-2.79,6.14c.05,4,2.24,7.18,5.71,8.21.74.23,1.48.45,1.6.47a22.23,22.23,0,0,0,5.94-.24,14.51,14.51,0,0,0,6.4-3.37c1.12-.93,1.36-.81,1.81.88a4.11,4.11,0,0,0,.9,1.71c.5.5.79.55,3,.55h2.42V38.47c0-11.2,0-12.25-.45-13.55A11.41,11.41,0,0,0,144.72,19.78Zm-4.31,22.31-1.19,1.12A8.2,8.2,0,0,1,133,45.66c-1.88.07-2.4,0-3.14-.41-1.4-.76-1.86-1.59-1.86-3.49,0-1.45.08-1.72.69-2.48,1.45-1.76,5.69-3.07,10-3.07h1.71Zm59.16-24.9c-3.76,0-4.19.19-4.69,2.07-.16.61-.38,1.47-.5,1.85-1.61,5.64-4.68,16.86-4.83,17.72-.4,2.09-.68,3.09-.88,3.09s-.3-.4-.42-.88c-.31-1.09-2.57-8.94-2.88-9.94-.12-.38-.5-1.57-.81-2.62s-.81-2.64-1.05-3.56c-2.3-8.07-2-7.73-5.73-7.73-2.21,0-2.66.07-3.16.47-.76.6-.6.12-3.81,10.71-.14.45-.33,1.09-.45,1.42-.4,1.31-2.12,6.9-2.71,8.92-.79,2.69-1.05,3.31-1.26,3.09a9.29,9.29,0,0,1-.55-2.09c-.38-2-1.57-6.52-3.54-13.84-.29-1.05-.84-3.09-1.19-4.57-.76-2.95-1-3.52-1.67-3.88s-7.06-.31-7.25,0,.59,2.86,1.78,6.43c.24.71.88,2.76,1.43,4.52s1.07,3.47,1.19,3.8.85,2.64,1.64,5.12,2,6.25,2.62,8.34,1.21,3.95,1.21,4.07a1.79,1.79,0,0,0,.33.67c.31.45.55.47,3.81.35,2.76-.09,3.54-.19,3.71-.47s.78-2.07,1.45-4.16,1.45-4.55,1.76-5.47.93-2.95,1.43-4.52,1.14-3.6,1.42-4.52.67-2.14.84-2.74.33-1.21.38-1.38c.14-.45.66-.21.76.33s1.54,5.33,2.07,6.88c.19.52,1,3,1.76,5.47,2.9,9.3,3.18,10.11,3.45,10.32a18.06,18.06,0,0,0,3.71.29c4.06.07,3.54.52,5-4.31,1.35-4.45,2.09-6.8,2.59-8.32.24-.72.88-2.76,1.43-4.52s1.18-3.81,1.42-4.52.88-2.76,1.43-4.52,1.26-4,1.57-5a6.58,6.58,0,0,0,.48-2.1C202.78,17.26,202,17.19,199.57,17.19ZM354.39,32.77a52.49,52.49,0,0,0-5-1.93c-4-1.31-4.49-1.55-5.63-2.67a2.09,2.09,0,0,1-.91-2A3.46,3.46,0,0,1,345,23c1.6-.83,4.52-.79,6.78.05a12.73,12.73,0,0,1,1.91.83,5.75,5.75,0,0,0,2.66.52,7.76,7.76,0,0,0,1.43-1.8c1.28-2,1.28-2-.88-3.43a14.22,14.22,0,0,0-6.05-2.33,14,14,0,0,0-6,0,10.77,10.77,0,0,0-5.11,1.92,9.43,9.43,0,0,0-4.26,10.16c.88,4.11,3.19,5.8,11.4,8.4,3.73,1.16,5.18,2.54,4.94,4.7-.28,2.38-2.26,3.74-5.56,3.74a9.59,9.59,0,0,1-5.21-1.36c-3.19-1.88-4.31-1.57-6.07,1.72l-.59,1.11.78.65a20.57,20.57,0,0,0,7.66,3.21,39.48,39.48,0,0,0,8.09-.41c5.42-1.76,8.32-5.37,8.32-10.44A8,8,0,0,0,354.39,32.77Zm-26,11.2a3.69,3.69,0,0,0-1.64.45c-1.57.71-2.57.76-3.61.12-1.45-.88-1.48-1.09-1.48-11.75,0-9.47,0-9.63.48-9.9a19.59,19.59,0,0,1,4.35-.21l3.85.05.08-2.67.07-2.64h-4.14c-3.16,0-4.21-.07-4.43-.31a26.16,26.16,0,0,1-.3-5.42l-.08-5.89h-2.42c-1.86,0-2.52.1-2.79.36s-.73,2.89-1.71,8.41a10.27,10.27,0,0,1-.66,2.54,4.83,4.83,0,0,1-1.81.55c-.86.12-2,.33-2.5.43l-.95.17v1.83c0,2.42.26,2.71,2.38,2.61,2.69-.11,2.45-1.14,2.54,11,.1,9.89.15,10.63.6,11.89a12.23,12.23,0,0,0,1.12,2.35,8.09,8.09,0,0,0,3.42,2.67c.36.12,1,.31,1.36.4a15.49,15.49,0,0,0,3.33.12,11.46,11.46,0,0,0,4.28-.71c1.81-.67,3.45-1.64,3.45-2A12.94,12.94,0,0,0,328.39,44ZM300.21,20.82c-3.28-3.18-8.76-4.8-13.92-4.13a16.19,16.19,0,0,0-6,1.73,16.64,16.64,0,0,0-6.68,7c-3.14,7.21-1.79,16.53,3.09,21.34a17.12,17.12,0,0,0,7.71,4.09,24.93,24.93,0,0,0,9.63-.33,15,15,0,0,0,10.3-10.71,24.52,24.52,0,0,0,.62-8.25C304.47,26.72,303.09,23.61,300.21,20.82Zm-6.14,22.39a9.19,9.19,0,0,1-2,1.45,14.51,14.51,0,0,1-5.57.38,8.09,8.09,0,0,1-5.28-4.57c-.9-2.64-.95-3-.95-6.49,0-5.09.76-7.57,3-9.59,1.33-1.23,2.93-1.73,5.52-1.73a6.55,6.55,0,0,1,4.59,1.26c2.24,1.5,3.35,4.28,3.54,8.77C297.09,38,296.24,41.19,294.07,43.21ZM224.92,32.62c-.8-.38-2.94-1.19-4.73-1.78-5.28-1.71-6.61-2.69-6.56-4.78a3.52,3.52,0,0,1,2.28-3.14,9.37,9.37,0,0,1,6.49.12c3.4,1.31,4.17,1.54,4.59,1.4a14.41,14.41,0,0,0,2.62-3.76,18.2,18.2,0,0,0-4-2.71,12.14,12.14,0,0,0-3.93-1.14,14.16,14.16,0,0,0-5.94,0,12,12,0,0,0-6.31,2.71,9.88,9.88,0,0,0-2.95,10c1.05,3.52,3.19,5.09,9.9,7.28,3.64,1.19,4.73,1.76,5.73,3,1.33,1.57.5,4.14-1.71,5.28a5.65,5.65,0,0,1-3.36.67,9.58,9.58,0,0,1-6-1.88,4.31,4.31,0,0,0-3.29-.45,7.6,7.6,0,0,0-1.4,1.88c-1.17,2-1.14,2.07.55,3.21a21.07,21.07,0,0,0,6.94,2.57,35.27,35.27,0,0,0,6.31-.1A12.15,12.15,0,0,0,227,47.63,9.32,9.32,0,0,0,229.85,42C230.51,37.57,228.94,34.55,224.92,32.62Zm37.56-13.15c-3.92-3.9-10.91-3.93-16-.1-.69.53-1.33.86-1.45.74s-.24-4.21-.26-9.11l-.08-8.92L240.86,2,237,2V26.3c0,13.39.05,24.4.1,24.45a53.78,53.78,0,0,0,7.49-.14c.19-.1.26-4,.26-12.37V26L246.21,25c2.22-1.71,3.24-2.14,5.43-2.26a8.69,8.69,0,0,1,2.83.19,5.73,5.73,0,0,1,3.07,2.86c.47,1,.5,1.54.61,13l.12,12h7.61V38.31c0-12.39,0-12.44-.54-14.11A10.7,10.7,0,0,0,262.48,19.47Z"/></g></g><g id="Icon" class="cls-2"><g id="Icon-2" data-name="Icon"><path class="cls-3" d="M27.08,28.71c-8.87,0-17.45,10.84-17.45,16.82,0,3.3,1.66,6.2,5.68,5,3.25-.93,7.29-3.27,11.26-3.27,3.09,0,7.3,2,10,2.82,5,1.56,6.84-1.09,7.1-3.84C44.19,40.34,35.94,28.71,27.08,28.71Zm7-7.48c3.06.38,7.69-5.28,7.95-10.12s-2.33-8.65-5.26-8.8S28.94,8.5,28.65,13.77,31.05,20.84,34.1,21.23ZM47.36,18c-2.86-.13-8.17,5.85-8.17,9.67s1.57,6.55,4.75,6.93,7.9-5.44,8.45-8.84S50.22,18.13,47.36,18Zm-27.9,3.24c3.06-.39,5.75-2.19,5.46-7.46S19.7,2.16,16.77,2.31s-5.51,4-5.26,8.8S16.4,21.61,19.46,21.23Zm-5.09,6.43c0-3.82-5.31-9.8-8.17-9.67s-5.57,4.36-5,7.76S6.44,35,9.62,34.59,14.37,31.47,14.37,27.66Z"/></g></g></svg>